# xmcd
#
# Track frame offsets:
#	150
#	12840
#	27405
#	39408
#	52906
#	64925
#	78636
#	92059
#	105129
#	116090
#	129786
#	141723
#	152266
#	164952
#	177617
#	191252
#	204633
#	217479
#	231213
#	244001
#	258034
#	269305
#	282651
#	295321
#	307995
#	321417
#	334249
#	346102
#
# Disc length: 4776 seconds
#
# Revision: 2
# Processed by: cddbd v1.5.2PL0 Copyright (c) Steve Scherf et al.
# Submitted via: audiograbber 1.83.01
#
DISCID=a612a61c
DTITLE=Various Artist - Country and Western Hit Parade 1950
DYEAR=2008
DGENRE=Country
TTITLE0=Red Foley - Chattanoogie Shoe Shine Boy
TTITLE1=Gene Autry - Blue Canadian Rockies
TTITLE2=Ole Rasmussen - Sleepy Eyed John
TTITLE3=Lefty Frizzell - If You've Got The Money, I've Got The Time
TTITLE4=Hank Williams - Long Gone Lonesome Blues
TTITLE5=Carl Smith - I Overlooked An Orchid (While Searching For A Rose)
TTITLE6=Little Jimmy Dickens - Hillbilly Fever
TTITLE7=Bob Wills - Faded Love
TTITLE8=Red Foley - Sugarfoot Rag
TTITLE9=Ted Daffan - I've Got Five Dollars And It's Saturday Night
TTITLE10=Tennessee Ernie Ford and Kay Starr - I'll Never Be Free
TTITLE11=Hank Penny - Bloodshot Eyes
TTITLE12=Lefty Frizzell - I Love You A Thousand Ways
TTITLE13=Hardrock Gunter - Birmingham Bounce
TTITLE14=Stuart Hamblen - Remember Me (I'm The One Who Loves You)
TTITLE15=Moon Mullican - I'll Sail My Ship Alone
TTITLE16=Johnnie Lee Wills - Rag Mop
TTITLE17=Billy Starr - Steppin' Out
TTITLE18=Skeets McDonald - The Tattooed Lady
TTITLE19=Ernest Tubb - Letters Have No Arms
TTITLE20=Arkie Shibley - Hot Rod Race
TTITLE21=Jimmie Skinner - You Don't Know My Mind
TTITLE22=Bill Monroe - I'm Blue, I'm Lonesome
TTITLE23=Webb Pierce - Drifting Texas Sand
TTITLE24=Floyd Tillman - I've Got The Craziest Feeling
TTITLE25=Hank Snow - I'm Moving On
TTITLE26=Stanley Brothers - The Fields Have Turned Brown
TTITLE27=Flatt and Scruggs - Foggy Mountain Breakdown
EXTD=
EXTT0=
EXTT1=
EXTT2=
EXTT3=
EXTT4=
EXTT5=
EXTT6=
EXTT7=
EXTT8=
EXTT9=
EXTT10=
EXTT11=
EXTT12=
EXTT13=
EXTT14=
EXTT15=
EXTT16=
EXTT17=
EXTT18=
EXTT19=
EXTT20=
EXTT21=
EXTT22=
EXTT23=
EXTT24=
EXTT25=
EXTT26=
EXTT27=
PLAYORDER=
